<?xml version="1.0" encoding="utf-8"?>
<!-- Generator: Adobe Illustrator 21.1.0, SVG Export Plug-In . SVG Version: 6.00 Build 0)  -->
<svg version="1.1" id="グループ化_93" xmlns="http://www.w3.org/2000/svg" xmlns:xlink="http://www.w3.org/1999/xlink" x="0px"
	 y="0px" viewBox="0 0 111.6 27.7" style="enable-background:new 0 0 111.6 27.7;" xml:space="preserve">
<style type="text/css">
	.st0{fill:#FFFFFF;}
</style>
<g id="グループ化_92" transform="translate(61.389 27.891)">
	<path id="パス_76" class="st0" d="M-55-12.3h4.9v1.4H-55V-12.3z M-38.8-5.1v-9.2h-19.7v11.6h3.5v-2.3h4.9v1.4
		c0,1.8,0.8,2.8,2.8,2.8h8c2.6,0,3.5-0.4,4.3-4.2l-2.6-1.2c-0.2,2.8-1,2.8-1.7,2.8h-6.4c-0.7,0-0.9-0.3-0.9-0.9v-0.6L-38.8-5.1
		L-38.8-5.1z M-46.8-12.3h4.7v1.4h-4.7V-12.3z M-55-8.8h4.9v1.5H-55L-55-8.8z M-46.8-8.8h4.7v1.5h-4.7V-8.8z M-59.5-24.1h9.2v1.3
		h-11.1v6h3.2v-3.8h7.9v5.2h3.3v-5.2h7.8v3.6h3.3v-5.8H-47v-1.3h9.3v-2.6h-21.8V-24.1z M-51.6-15.5V-17h-5.3v1.5H-51.6z M-51.6-18
		v-1.5h-5.3v1.5L-51.6-18z M-40.4-18.1v-1.5h-5.4v1.5L-40.4-18.1z M-40.3-15.7v-1.4h-5.4v1.4H-40.3z"/>
	<path id="パス_77" class="st0" d="M-22.5-18.4h-2.1v-0.8h2.1V-18.4z M-24.6-15.6v-1h4.5v-7h-4.5v-0.9h5.6v-2h-5.6v-0.3
		c0.3-0.3,0.6-0.6,0.6-0.8s-0.4-0.3-1-0.3l-2.7-0.1v1.5h-5.4v2h5.4v0.9h-4.5v7h4.5v1h-5.5v2.2h5.5v1.3h2.9v-1.3h5.2l1,1.4
		c1.6-0.2,3.3-0.6,4.8-1.2c1.6,1,3.3,1.8,5.1,2.4l2.1-2.6c-1.7-0.1-3.3-0.6-4.8-1.2c1.5-1.1,2.7-2.5,3.7-4l-1.1-1h-9
		c2.1-2,2.4-3.3,2.5-5.1h2v2.9c0,1,0.3,1.5,1.3,1.5h3c1.9,0,2.2-2.6,2.3-3.5l-2.3-1c-0.1,0.3-0.1,1.7-0.7,1.7h-0.5
		c-0.4,0-0.4-0.3-0.4-0.8v-3.3h-7.2c0.1,3.5,0.2,4.2-2.2,5.8l2,1.8h-1.1v2.2h1.1c0.6,1,1.3,1.8,2.2,2.6c-1.1,0.4-2.2,0.5-3.3,0.4
		v-1.2H-24.6z M-27.6-19.2v0.8h-2.1v-0.8H-27.6z M-29.7-21.7h2.1v0.8h-2.1V-21.7z M-24.6-21v-0.8h2.1v0.8H-24.6z M-11.9-17.4
		c-0.5,0.6-1,1.1-1.7,1.5c-0.5-0.4-1-0.9-1.3-1.5H-11.9z M-29.9-9.6c3.3,0.1,5.3,0.1,8.3,0v0.7h-9.9V-7h9.9v0.9h-11.6v1.9h11.6v0.4
		c0,0.4-0.2,0.5-0.6,0.5c-0.4,0-1.5-0.1-1.8-0.1l1.3,2.9c2.7-0.1,4.8-0.3,4.8-1.9v-1.9h11v-1.9h-11V-7h9.4v-1.9h-9.4v-0.8
		c1.7-0.1,4.1-0.4,5.6-0.6c0.3,0.1,0.6,0.1,0.8,0.2c0.1,0,0.2-0.1,0.2-0.2c0-0.2-0.2-0.4-0.5-0.8l-1.4-1.5
		c-3.4,0.8-6.8,1.1-10.3,1.1c-2.7,0-5.3-0.2-7.5-0.3L-29.9-9.6z"/>
	<path id="パス_78" class="st0" d="M13.1-20.5c-0.8,3.3-2.3,6.5-4.4,9.2c-2.3-2.7-4.1-5.8-5.3-9.2H13.1z M6.8-23.7H-4v3.2h6.2v0.1
		l-2.1,1C1.4-15.5,3.5-12,6.3-8.9C2.9-6.2-1.1-4.3-5.3-3.5l2.7,2.9c5.8-2,8.3-3.3,11.4-5.8c3,2.6,6.6,4.6,10.4,5.6l2.2-3.4
		c-3.7-0.7-7.2-2.3-10.2-4.6c1.9-2.4,3.5-4.8,5.5-10.6c0.6-0.1,0.8-0.3,0.8-0.5s-0.3-0.4-0.7-0.6v-0.1h4.7v-3.2h-11v-2.5
		c0.4-0.3,0.6-0.6,0.6-0.8s-0.3-0.3-0.8-0.3l-3.7-0.3L6.8-23.7L6.8-23.7z"/>
	<path id="パス_79" class="st0" d="M37.4-10h-3.3v-1.5h3.3V-10z M26.3-1.3c1.7-4.5,2.3-6.3,2.3-15.7c0-2.2-0.1-4-0.1-5.6h8.9v1.8
		h-7.6v2.4h7.6v1.3h-6.7v9.3h6.7v1H29v2.9h8.4v3.7h3.7v-3.7H50v-2.9h-8.9v-1h6.8v-9.3h-6.8v-1.3h8.6v-2.4h-8.6v-0.9
		c0.3-0.3,0.4-0.4,0.4-0.6c0-0.2-0.2-0.3-0.3-0.3v-0.1h9v-2.9h-11v-1.1c0.4-0.2,0.6-0.4,0.6-0.6c0-0.2-0.3-0.4-0.6-0.4l-4.2-0.3v2.3
		h-10c0.5,3.3,0.7,6.6,0.6,9.9c0,6.2-0.7,9.9-2.7,13.3L26.3-1.3z M44.5-11.5v1.5h-3.4v-1.5L44.5-11.5z M37.4-13.5h-3.3v-1.3h3.3
		V-13.5z M44.5-14.9v1.3h-3.4v-1.3H44.5z"/>
</g>
</svg>
